<svg width="14" height="8" viewBox="0 0 14 8" fill="none" xmlns="http://www.w3.org/2000/svg">
<path d="M0.636417 0.481201C0.467581 0.481046 0.305616 0.548048 0.186231 0.667432C0.0668464 0.786817 -0.000154698 0.948782 2.68218e-07 1.11762V4.45837C-2.50467e-07 4.76083 0.212885 5.02151 0.50925 5.08195C0.583199 5.09716 0.636306 5.1622 0.636417 5.2377V6.52628C0.636417 6.87777 0.92135 7.1627 1.27283 7.1627C1.62432 7.1627 1.90925 6.87777 1.90925 6.52628V5.25403C1.9091 5.21185 1.92574 5.17135 1.95552 5.14146C1.98529 5.11158 2.02573 5.09478 2.06792 5.09478H11.9321C11.9743 5.09478 12.0147 5.11158 12.0445 5.14146C12.0743 5.17135 12.0909 5.21185 12.0908 5.25403V6.52628C12.0908 6.87777 12.3757 7.1627 12.7272 7.1627C13.0787 7.1627 13.3636 6.87777 13.3636 6.52628V5.2377C13.3637 5.1622 13.4168 5.09716 13.4908 5.08195C13.7871 5.02151 14 4.76083 14 4.45837V1.11762C14.0002 0.948782 13.9332 0.786817 13.8138 0.667432C13.6944 0.548048 13.5324 0.481046 13.3636 0.481201H0.636417Z" fill="black"/>
</svg>
